<svg version="1.1" viewBox="0 0 64 64" xmlns="http://www.w3.org/2000/svg">
  <defs>
    <linearGradient id="bg" x1="0" y1="0" x2=".25" y2="1">
      <stop offset="0%" stop-color="#22A55E"/>
      <stop offset="100%" stop-color="#0A4A28"/>
    </linearGradient>
    <linearGradient id="sl" x1="0" y1="0" x2="0" y2="1">
      <stop offset="0%" stop-color="white" stop-opacity="0.14"/>
      <stop offset="100%" stop-color="white" stop-opacity="0.04"/>
    </linearGradient>
    <linearGradient id="sr" x1="0" y1="0" x2="0" y2="1">
      <stop offset="0%" stop-color="white" stop-opacity="0.11"/>
      <stop offset="100%" stop-color="white" stop-opacity="0.03"/>
    </linearGradient>
  </defs>
  <rect width="64" height="64" rx="13" fill="url(#bg)"/>
  <rect x="3" y="11" width="25" height="19" rx="2.5" fill="url(#sl)" stroke="white" stroke-opacity="0.52" stroke-width="1.2"/>
  <rect x="7" y="15.5" width="13" height="1.4" rx=".7" fill="white" fill-opacity="0.32"/>
  <rect x="7" y="19.2" width="17" height="1"   rx=".5" fill="white" fill-opacity="0.14"/>
  <rect x="7" y="22.2" width="10" height="1"   rx=".5" fill="white" fill-opacity="0.14"/>
  <rect x="7" y="25.2" width="15" height="1"   rx=".5" fill="white" fill-opacity="0.14"/>
  <rect x="36" y="14" width="25" height="21" rx="2.5" fill="url(#sr)" stroke="white" stroke-opacity="0.65" stroke-width="1.2"/>
  <rect x="40" y="18.5" width="14" height="1.4" rx=".7" fill="white" fill-opacity="0.32"/>
  <rect x="40" y="22.2" width="18" height="1"   rx=".5" fill="white" fill-opacity="0.14"/>
  <rect x="40" y="25.2" width="11" height="1"   rx=".5" fill="white" fill-opacity="0.14"/>
  <rect x="40" y="28.2" width="16" height="1"   rx=".5" fill="white" fill-opacity="0.14"/>
  <path d="M 24 13 L 24 28 L 28.5 23.5 L 32 30 L 34 29 L 30.5 22.5 L 36.5 22.5 Z" fill="white"/>
</svg>
